<?xml version="1.0" encoding="utf-8"?>
<!-- Generator: Adobe Illustrator 24.3.0, SVG Export Plug-In . SVG Version: 6.00 Build 0)  -->
<svg version="1.1" id="Capa_1" xmlns="http://www.w3.org/2000/svg" xmlns:xlink="http://www.w3.org/1999/xlink" x="0px" y="0px"
	 viewBox="0 0 3196.7 2244.2" style="enable-background:new 0 0 3196.7 2244.2;" xml:space="preserve">
<style type="text/css">
	.st0{fill:#FFCCD4;}
	.st1{fill:#EBBCCE;}
	.st2{clip-path:url(#SVGID_2_);}
	.st3{opacity:0.14;fill:#EB2873;enable-background:new    ;}
	.st4{fill:#EB2873;}
	.st5{fill:#FFFFFF;}
	.st6{clip-path:url(#SVGID_4_);}
	.st7{fill:none;}
</style>
<g id="Capa_2_1_">
	<g id="_404">
		<circle class="st0" cx="1611.6" cy="985.2" r="498.2"/>
		<path class="st1" d="M1179.8,1254.2c1.6,3.8,6.1,5.6,9.9,4c0,0,0,0,0,0l22.7-9.6c3.8-1.6,5.6-6.1,4-9.9l-1.4-3.3l18.9-8
			c9.9-4.2,14.5-15.6,10.3-25.5c0,0,0,0,0,0l-55.6-130.7c-4.2-9.9-15.6-14.5-25.5-10.3l-18.9,8l-1.4-3.3c-1.6-3.8-6.1-5.6-9.9-4
			l-22.7,9.6c-3.8,1.6-5.6,6.1-4,9.9c0,0,0,0,0,0l1.4,3.3l-10.7,4.6l-1.4-3.3c-1.6-3.8-6.1-5.6-9.9-4l-22.7,9.6
			c-3.9,1.6-5.7,6.1-4,9.9c0,0,0,0,0,0.1l1.4,3.3l-133.2,56.6c-9.9,4.2-14.5,15.6-10.3,25.5c0,0,0,0,0,0l55.6,130.7
			c4.2,9.9,15.6,14.5,25.5,10.3l133.2-56.6l1.4,3.3c1.6,3.8,6.1,5.6,9.9,4l22.7-9.6c3.9-1.6,5.7-6.1,4-10c0,0,0,0,0,0l-1.4-3.3
			l10.7-4.6L1179.8,1254.2z"/>
		<g>
			<defs>
				<path id="SVGID_1_" d="M1179.8,1254.2c1.6,3.8,6.1,5.6,9.9,4c0,0,0,0,0,0l22.7-9.6c3.8-1.6,5.6-6.1,4-9.9l-1.4-3.3l18.9-8
					c9.9-4.2,14.5-15.6,10.3-25.5c0,0,0,0,0,0l-55.6-130.7c-4.2-9.9-15.6-14.5-25.5-10.3l-18.9,8l-1.4-3.3c-1.6-3.8-6.1-5.6-9.9-4
					l-22.7,9.6c-3.8,1.6-5.6,6.1-4,9.9c0,0,0,0,0,0l1.4,3.3l-10.7,4.6l-1.4-3.3c-1.6-3.8-6.1-5.6-9.9-4l-22.7,9.6
					c-3.9,1.6-5.7,6.1-4,9.9c0,0,0,0,0,0.1l1.4,3.3l-133.2,56.6c-9.9,4.2-14.5,15.6-10.3,25.5c0,0,0,0,0,0l55.6,130.7
					c4.2,9.9,15.6,14.5,25.5,10.3l133.2-56.6l1.4,3.3c1.6,3.8,6.1,5.6,9.9,4l22.7-9.6c3.9-1.6,5.7-6.1,4-10c0,0,0,0,0,0l-1.4-3.3
					l10.7-4.6L1179.8,1254.2z"/>
			</defs>
			<clipPath id="SVGID_2_">
				<use xlink:href="#SVGID_1_"  style="overflow:visible;"/>
			</clipPath>
			<g class="st2">
				<polyline class="st3" points="942.6,1251.4 1235.2,1128 1179.7,1024.2 884.7,1153.7 911.3,1223.4 942.6,1251.4 				"/>
			</g>
		</g>
		
			<rect x="1212.1" y="1050.9" transform="matrix(0.9203 -0.3912 0.3912 0.9203 -335.5681 583.9791)" class="st4" width="106.8" height="129.3"/>
		
			<rect x="1262.7" y="1049" transform="matrix(0.9203 -0.3912 0.3912 0.9203 -312.4663 583.5651)" class="st5" width="26.5" height="19.3"/>
		
			<rect x="1275.3" y="1078.7" transform="matrix(0.9203 -0.3912 0.3912 0.9203 -323.0713 590.8605)" class="st5" width="26.5" height="19.3"/>
		
			<rect x="1288" y="1108.4" transform="matrix(0.9203 -0.3912 0.3912 0.9203 -333.673 598.1656)" class="st5" width="26.5" height="19.3"/>
		
			<rect x="1300.6" y="1138" transform="matrix(0.9203 -0.3912 0.3912 0.9203 -344.2734 605.4557)" class="st5" width="26.5" height="19.3"/>
		
			<rect x="1131.7" y="1079.5" transform="matrix(0.9203 -0.3912 0.3912 0.9203 -367.0391 538.275)" class="st4" width="11.6" height="180.9"/>
		<polygon class="st4" points="929.1,1217 960.1,1288.3 911.4,1308.5 880.4,1237.2 		"/>
		<path class="st4" d="M0,1048.3c6.9-4.4,13.7-8.7,20.5-12.8c4.7-2.9,9.5-5.9,14.3-8.9c40.8-25.9,70-41.7,101.7-25.7
			c24.7,12.5,37.3,42.9,49.4,72.4c2.9,7.1,5.9,14.4,9.1,21.3c16.9,37.2,37.7,80.9,63.7,122.2c43.2,68.8,136.5,183.6,275.4,179.6
			c130.9-3.7,262.1-60.2,377.9-110.1l16.3-7l-14.8-34.5l-16.3,7c-112.7,48.5-240.3,103.5-364.1,107.1
			c-51.6,1.5-151.7-17.6-242.5-162.1c-24.8-39.5-44.9-81.7-61.3-117.8c-2.9-6.3-5.6-13-8.5-20.1c-14.1-34.1-30-72.8-67.2-91.6
			c-53.2-26.8-100.6,3.3-138.8,27.5c-4.6,2.9-9.2,5.8-13.7,8.6L0,1048.3z"/>
		<path class="st1" d="M2308.4,653.6l53.1,115c4,8.8,0.2,19.2-8.5,23.2c0,0,0,0,0,0l-341.4,157.6c-8.8,4-19.2,0.2-23.2-8.5
			c0,0,0,0,0,0l-53.1-115c-4.1-8.8-0.2-19.2,8.5-23.2c0,0,0,0,0,0l341.4-157.6C2293.9,641,2304.3,644.8,2308.4,653.6z"/>
		<g>
			<defs>
				<path id="SVGID_3_" d="M2308.4,653.6l53.1,115c4,8.8,0.2,19.2-8.5,23.2c0,0,0,0,0,0l-341.4,157.6c-8.8,4-19.2,0.2-23.2-8.5
					c0,0,0,0,0,0l-53.1-115c-4.1-8.8-0.2-19.2,8.5-23.2c0,0,0,0,0,0l341.4-157.6C2293.9,641,2304.3,644.8,2308.4,653.6z"/>
			</defs>
			<clipPath id="SVGID_4_">
				<use xlink:href="#SVGID_3_"  style="overflow:visible;"/>
			</clipPath>
			<g class="st6">
				<polygon class="st3" points="2341.2,711.1 1937.5,892.8 1904.7,792 2048,685.2 2322.4,609.9 				"/>
			</g>
		</g>
		<path class="st4" d="M2148.3,701.4l73,158.1c2.1,4.5,0.1,9.9-4.4,12l-132.5,61.2c-4.5,2.1-9.9,0.1-12-4.4l-73-158.1
			c-2.1-4.5-0.1-9.9,4.4-12l132.5-61.2C2140.8,694.9,2146.2,696.8,2148.3,701.4z"/>
		<path class="st1" d="M2204.9,852.7L2204.9,852.7c1.5,3.3,0.1,7.1-3.2,8.6v0l-115.1,53.2c-3.3,1.5-7.1,0.1-8.6-3.2l0,0
			c-1.5-3.3-0.1-7.1,3.2-8.6v0l115.1-53.2C2199.6,848,2203.4,849.5,2204.9,852.7z"/>
		<path class="st1" d="M2192.5,825.8L2192.5,825.8c1.5,3.3,0.1,7.1-3.2,8.6v0l-115.1,53.2c-3.3,1.5-7.1,0.1-8.6-3.2l0,0
			c-1.5-3.3-0.1-7.1,3.2-8.6v0l115.1-53.2C2187.1,821.1,2191,822.6,2192.5,825.8z"/>
		<path class="st1" d="M2180.1,798.9L2180.1,798.9c1.5,3.3,0.1,7.1-3.2,8.6l-115.1,53.2c-3.3,1.5-7.1,0.1-8.6-3.2l0,0
			c-1.5-3.3-0.1-7.1,3.2-8.6c0,0,0,0,0,0l115.1-53.2C2174.7,794.2,2178.6,795.6,2180.1,798.9
			C2180.1,798.9,2180.1,798.9,2180.1,798.9z"/>
		<path class="st1" d="M2167.7,772L2167.7,772c1.5,3.3,0.1,7.1-3.2,8.6v0l-115.1,53.2c-3.3,1.5-7.1,0.1-8.6-3.2l0,0
			c-1.5-3.3-0.1-7.1,3.2-8.6l115.1-53.2C2162.2,767.3,2166.1,768.7,2167.7,772C2167.6,772,2167.7,772,2167.7,772z"/>
		<path class="st1" d="M2155.2,745.1L2155.2,745.1c1.5,3.3,0.1,7.1-3.2,8.6c0,0,0,0,0,0l-115.1,53.2c-3.3,1.5-7.1,0.1-8.6-3.2
			c0,0,0,0,0,0l0,0c-1.5-3.3-0.1-7.1,3.2-8.6l0,0l115.1-53.2C2149.9,740.4,2153.7,741.8,2155.2,745.1
			C2155.2,745.1,2155.2,745.1,2155.2,745.1z"/>
		<path class="st1" d="M2142.8,718.2L2142.8,718.2c1.5,3.3,0.1,7.1-3.2,8.6v0L2024.5,780c-3.3,1.5-7.1,0.1-8.6-3.2c0,0,0,0,0,0l0,0
			c-1.5-3.3-0.1-7.1,3.2-8.6l0,0l115.1-53.2C2137.4,713.5,2141.3,714.9,2142.8,718.2z"/>
		<path class="st4" d="M1952.8,864l17.9,38.7l-133.2,61.5c-10.7,4.9-23.4,0.3-28.3-10.4l0,0c-4.9-10.7-0.3-23.4,10.4-28.3
			c0,0,0,0,0,0L1952.8,864z"/>
		
			<rect x="2332.2" y="661.1" transform="matrix(0.9079 -0.4191 0.4191 0.9079 -75.5844 1053.9739)" class="st4" width="57.8" height="75.9"/>
		<path class="st4" d="M3196.7,1085.2c-94.6-21.5-192.7-114.6-273.9-191.6c-35.8-33.9-66.7-63.3-92.3-81.8
			c-169.8-123.2-320.1-159.8-459.6-112l-5.8-16.8c145.4-49.8,301.1-12.3,475.9,114.5c26.6,19.3,57.9,49,94.1,83.3
			c78.4,74.4,173.1,164.2,261.6,186.3V1085.2z"/>
		<path class="st4" d="M1581.8,1197.7c3.3-7.7,9.4-13.9,17.2-17.2c8.1-3.4,17.1-3.4,25.2,0c7.7,3.3,13.9,9.4,17.2,17.2
			c3.4,8.1,3.4,17.1,0,25.2c-3.3,7.7-9.4,13.9-17.2,17.2c-8.1,3.4-17.1,3.4-25.2,0c-7.7-3.3-13.9-9.4-17.2-17.2
			C1578.5,1214.9,1578.5,1205.8,1581.8,1197.7z M1658.7,690.3c0-18.4-3.5-32.2-10.6-41.4c-7-9.2-19.2-13.8-36.5-13.8
			c-17.3,0-29.5,4.6-36.5,13.8c-7,9.2-10.5,23-10.5,41.4v165.8l24.3,247v-0.7c1.1,8.2,3.9,13.8,8.4,16.9c8.5,6,19.8,6.1,28.4,0.2
			c4.4-2.9,7.2-8.4,8.3-16.4l24.7-247L1658.7,690.3z"/>
		<rect y="0" class="st7" width="3196.7" height="2244.2"/>
	</g>
</g>
</svg>
